<svg width="16" height="16" viewBox="0 0 16 16" fill="none" xmlns="http://www.w3.org/2000/svg">
<g clip-path="url(#clip0_246_508)">
<path d="M6.89389 9.65C6.48231 10.1 6.12219 10.5 5.76206 10.95C4.63022 12.25 3.44695 13.55 2.31511 14.85C2.00643 15.15 1.7492 15.5 1.44051 15.8C1.38907 15.85 1.33762 15.9 1.28617 15.9H0C0.205788 15.65 0.411576 15.4 0.617363 15.2C1.95498 13.7 3.2926 12.2 4.57878 10.7C5.09325 10.1 5.60772 9.55 6.12219 9C6.22508 8.85 6.22508 8.8 6.12219 8.65C4.11576 5.8 2.10932 2.95 0.102894 0.15C0.0514469 0.1 0.0514469 0.05 0 0H4.52733C4.63023 0 4.73312 0.05 4.78457 0.15C6.12219 2.05 7.45981 3.9 8.79743 5.8C8.79743 5.8 8.84888 5.85 8.84888 5.9C8.95177 5.75 9.10611 5.65 9.209 5.5C10.5981 3.9 12.0386 2.3 13.4277 0.7C13.6334 0.5 13.7878 0.3 13.9936 0.1C14.045 0.05 14.0965 0 14.0965 0H15.4341C13.4277 2.25 11.4727 4.5 9.46624 6.75C11.627 9.8 13.7878 12.9 16 16H11.4727C11.3183 16 11.2669 15.95 11.164 15.85C9.77492 13.85 8.38585 11.9 6.99678 9.9C6.99678 9.75 6.94534 9.7 6.89389 9.65ZM2.05788 0.95C2.10932 1 2.10932 1.05 2.16077 1.1C3.3955 2.9 4.68167 4.65 5.9164 6.45C7.87138 9.2 9.82637 11.95 11.7814 14.7C11.8328 14.8 11.9357 14.85 12.0386 14.85H13.9936C13.9421 14.8 13.9421 14.75 13.8907 14.7C11.9357 11.9 9.98071 9.15 8.02572 6.4C6.791 4.65 5.55627 2.9 4.2701 1.1C4.21865 1.05 4.11576 0.95 4.06431 0.95H2.05788Z" fill="white"/>
</g>
<defs>
<clipPath id="clip0_246_508">
<rect width="16" height="16" fill="white"/>
</clipPath>
</defs>
</svg>
