<svg width="202" height="50" viewBox="0 0 202 50" fill="none" xmlns="http://www.w3.org/2000/svg">
<path d="M57.2523 0.00708008H4.59622C2.0578 0.00708008 0 2.06488 0 4.6033V45.3822C0 47.9206 2.0578 49.9784 4.59622 49.9784H57.2523C59.7907 49.9784 61.8485 47.9206 61.8485 45.3822V4.6033C61.8485 2.06488 59.7907 0.00708008 57.2523 0.00708008Z" fill="#F6B510"/>
<path d="M46.4132 49.9784H4.59622C2.06186 49.9784 0 47.9237 0 45.3822V4.6033C0 2.06894 2.0547 0.00708008 4.59622 0.00708008H32.3167C33.0756 0.00708008 60.2377 26.9759 32.3167 23.0025C32.3167 23.0025 19.8454 24.0263 16.8099 29.4172C10.9107 39.8911 22.1793 45.5182 22.1793 46.6924L39.5404 39.7837C39.5404 42.3181 48.9548 49.9856 46.4204 49.9856L46.4132 49.9784Z" fill="#5A5A5A"/>
<path d="M29.1596 6.85846C25.8449 6.85846 23.7043 7.50279 21.671 8.46212C22.208 8.99906 22.8452 10.4953 22.8452 11.7768C22.8452 14.6692 20.7046 16.595 17.3898 16.595C13.6456 16.595 11.9345 14.0248 11.9345 11.1397C11.9273 4.07352 20.7046 0.00708008 30.1189 0.00708008C44.1367 0.00708008 49.4846 6.85846 49.4846 19.3728C49.4846 27.3983 49.1625 28.5724 49.1625 37.8865C49.1625 40.8862 49.6994 42.3825 51.84 42.3825C52.4843 42.3825 53.1215 42.2751 53.6584 42.0603L54.6249 41.7382L56.1212 47.4083C53.8732 49.5489 50.6659 49.9784 48.4179 49.9784C46.1699 49.9784 40.7146 49.3341 39.8555 42.9195C37.3927 46.6637 32.4743 49.9784 24.8712 49.9784C14.5977 49.9784 8.49808 44.4157 8.49808 35.4237C8.49808 25.5798 16.094 20.4395 27.5488 20.4395C31.7226 20.4395 36.7484 21.1912 39.6407 22.7949C39.7481 21.406 39.7481 20.1173 39.7481 18.9432C39.7481 11.9845 37.3927 6.8513 29.1524 6.8513L29.1596 6.85846ZM28.0929 42.3825C33.9777 42.3825 37.722 38.9604 39.5405 36.0681V29.4315C36.6481 27.8278 33.3334 26.9687 29.5891 26.9687C22.8452 26.9687 19.2083 29.5389 19.2083 34.672C19.2083 38.8459 22.1006 42.3754 28.0929 42.3754V42.3825Z" fill="white"/>
<path d="M82.812 9.4215C81.8527 9.4215 81.237 9.60764 80.6499 9.88685C80.8074 10.0444 80.9936 10.4739 80.9936 10.8462C80.9936 11.6838 80.3779 12.2351 79.4185 12.2351C78.3375 12.2351 77.8435 11.4905 77.8435 10.66C77.8435 8.61967 80.3779 7.44556 83.0984 7.44556C87.1505 7.44556 88.6897 9.4215 88.6897 13.0369C88.6897 15.3565 88.5967 15.693 88.5967 18.3848C88.5967 19.2511 88.7542 19.6807 89.3699 19.6807C89.556 19.6807 89.7421 19.652 89.8925 19.5876L90.1717 19.4945L90.6012 21.134C89.9497 21.7497 89.0262 21.8785 88.3747 21.8785C87.7232 21.8785 86.1482 21.6924 85.9048 19.8382C85.196 20.9192 83.7713 21.8785 81.5806 21.8785C78.6167 21.8785 76.8555 20.2749 76.8555 17.6761C76.8555 14.8339 79.0463 13.3519 82.3538 13.3519C83.5566 13.3519 85.0099 13.5667 85.8475 14.032C85.8761 13.6311 85.8761 13.2588 85.8761 12.9224C85.8761 10.9106 85.196 9.42866 82.8192 9.42866L82.812 9.4215ZM82.5042 19.6807C84.2009 19.6807 85.2819 18.6927 85.8117 17.8551V15.9364C84.9741 15.471 84.0219 15.2276 82.9409 15.2276C80.9936 15.2276 79.9412 15.9722 79.9412 17.4541C79.9412 18.6569 80.7788 19.6807 82.5042 19.6807Z" fill="white"/>
<path d="M99.4716 20.8548C98.6984 21.4705 97.5887 21.9359 96.071 21.9359C93.8803 21.9359 92.7634 20.6042 92.7634 17.9195V2.0905H90.7517V0.0214844H95.7273V17.0819C95.7273 18.9075 96.1569 19.6807 97.2451 19.6807C97.8608 19.6807 98.4192 19.4015 98.8846 19.1223L99.4716 20.8548Z" fill="white"/>
<path d="M100.46 19.5876H102.221V9.82245H100.46V7.75344H105.156V19.5876H107.01V21.6566H100.46V19.5876ZM101.512 1.88288C101.512 0.7374 102.471 0 103.552 0C104.54 0 105.471 0.744559 105.471 1.88288C105.471 3.15006 104.54 3.89462 103.552 3.89462C102.471 3.89462 101.512 3.15006 101.512 1.88288Z" fill="white"/>
<path d="M115.945 7.43848C119.224 7.43848 121.665 8.67702 121.665 10.9322C121.665 11.9488 120.827 12.7578 119.811 12.7578C118.794 12.7578 117.985 11.9846 117.985 10.9966C117.985 10.7174 118.05 10.4382 118.171 10.1948C117.677 9.91557 117.119 9.76522 116.503 9.76522C113.754 9.76522 111.864 11.777 111.864 14.6478C111.864 17.5187 114.055 19.466 116.654 19.466C118.229 19.466 119.589 18.7572 120.455 17.6762L121.787 19.4373C120.584 21.1699 118.508 21.9717 116.253 21.9717C111.707 21.9717 108.714 19.1008 108.714 14.7122C108.714 10.6673 111.649 7.4528 115.945 7.4528V7.43848Z" fill="white"/>
<path d="M126.484 15.5999C126.698 18.1987 128.617 19.6162 131.209 19.6162C133.063 19.6162 134.394 19.0292 135.254 18.1915L136.363 20.0171C135.003 21.3488 132.991 21.9645 130.922 21.9645C126.161 21.9645 123.29 19.0936 123.29 14.705C123.29 10.66 125.889 7.44556 130.679 7.44556C134.416 7.44556 137.294 10.0086 137.294 13.8459C137.294 14.5905 137.229 15.1417 137.136 15.6071H126.476L126.484 15.5999ZM134.244 13.5882C134.151 11.4547 133.099 9.75799 130.536 9.75799C127.973 9.75799 126.455 11.6409 126.455 13.5882H134.244Z" fill="white"/>
<path d="M76.8485 41.7454H78.6097V31.9802H76.8485V29.9112H81.545V31.701C82.5043 30.4983 84.2941 29.6606 86.0553 29.6606C88.2532 29.6606 89.7351 30.5555 90.3222 32.1306C91.2171 30.6773 92.9783 29.6606 95.0831 29.6606C97.6819 29.6606 99.5934 30.8634 99.5934 34.7007V41.7454H101.261V43.8144H95.0831V41.7454H96.6581V35.2592C96.6581 33.1257 95.7346 32.0733 93.8803 32.0733C92.3053 32.0733 91.1312 32.8751 90.5441 33.9562C90.5728 34.171 90.5728 34.5146 90.5728 34.7938V41.7454H92.1478V43.8144H85.998V41.7454H87.6375V34.7938C87.6375 33.183 86.7426 32.0733 84.8883 32.0733C83.4064 32.0733 82.2609 32.8465 81.5521 33.8345V41.7454H83.1558V43.8144H76.8485V41.7454Z" fill="white"/>
<path d="M102.844 31.9801H101.827V29.9111H108.006V31.9801H106.087L109.273 38.9031C109.581 39.6119 109.86 40.3278 110.11 41.0366L110.762 38.9031L113.361 31.9801H111.442V29.9111H117.098V31.9801H116.081L111.292 43.8143C109.223 48.79 107.834 49.9927 105.851 49.9927C104.247 49.9927 103.345 48.7542 103.345 47.6732C103.345 46.6852 104.089 45.912 105.042 45.912C105.937 45.912 106.466 46.4346 106.559 47.1505C106.559 47.2722 106.588 47.4297 106.495 47.5801H106.524C107.232 47.4226 107.726 46.2198 108.442 44.6162L108.75 43.8716L102.851 31.973L102.844 31.9801Z" fill="white"/>
<path d="M121.014 37.7576C121.229 40.3564 123.147 41.7739 125.739 41.7739C127.593 41.7739 128.925 41.1869 129.784 40.3493L130.893 42.1749C129.533 43.5065 127.521 44.1222 125.452 44.1222C120.692 44.1222 117.821 41.2513 117.821 36.8627C117.821 32.8178 120.42 29.6033 125.209 29.6033C128.946 29.6033 131.824 32.1663 131.824 36.0036C131.824 36.7482 131.76 37.2994 131.667 37.7648H121.007L121.014 37.7576ZM128.767 35.7459C128.674 33.6124 127.622 31.9157 125.059 31.9157C122.496 31.9157 120.978 33.7986 120.978 35.7459H128.767Z" fill="white"/>
<path d="M133.686 41.7453H135.447V31.9802H133.686V29.9111H138.382V31.5506C139.091 30.4696 140.079 29.6677 141.933 29.6677C143.572 29.6677 144.31 30.5626 144.31 31.9229C144.31 33.0039 143.444 33.7127 142.456 33.7127C141.468 33.7127 140.723 33.097 140.723 32.1019V31.8513C139.484 32.0088 138.84 32.9323 138.375 33.7986V41.7382H140.909V43.8072H133.678V41.7382L133.686 41.7453Z" fill="white"/>
<path d="M145.212 41.7455H147.038V24.2555H145.026V22.1865H149.973V31.5508C150.961 30.4697 152.722 29.6679 154.454 29.6679C158.041 29.6679 160.175 31.4577 160.175 35.8177V41.7527H161.843V43.8217H155.6V41.7527H157.204V36.0969C157.204 33.4981 156.001 32.0806 153.653 32.0806C152.199 32.0806 150.81 32.7607 149.973 33.72V41.7527H151.483V43.8217H145.212V41.7527V41.7455Z" fill="white"/>
<path d="M162.981 36.8629C162.981 32.689 165.888 29.5676 170.556 29.5676C175.223 29.5676 178.13 32.689 178.13 36.8629C178.13 41.0367 175.195 44.1581 170.556 44.1581C165.516 44.1581 162.981 41.0367 162.981 36.8629ZM174.944 36.8629C174.944 33.7415 173.154 31.8872 170.556 31.8872C167.957 31.8872 166.138 33.677 166.138 36.8629C166.138 40.0487 167.928 41.8385 170.556 41.8385C173.183 41.8385 174.944 40.0774 174.944 36.8629Z" fill="white"/>
<path d="M179.984 41.7453H181.996V31.9802H179.984V29.9398H181.996V27.7419C181.996 23.7542 183.85 21.8713 187.401 21.8713C189.599 21.8713 191.174 22.8879 191.174 24.6491C191.174 25.6085 190.337 26.4103 189.349 26.4103C188.361 26.4103 187.709 25.7946 187.709 24.957C187.709 24.6205 187.895 24.1193 188.017 23.9976C187.924 23.9046 187.645 23.8759 187.43 23.8759C185.79 23.8759 184.802 25.1717 184.802 27.7992C184.802 28.1715 184.867 29.682 184.924 29.904H188.511V31.973H184.924V41.7382H187.924V43.8072H179.984V41.7382V41.7453Z" fill="white"/>
<path d="M189.871 41.7453H191.883V31.9802H189.871V29.9398H191.883V27.7419C191.883 23.7542 193.737 21.8713 197.288 21.8713C199.486 21.8713 201.061 22.8879 201.061 24.6491C201.061 25.6085 200.223 26.4103 199.236 26.4103C198.248 26.4103 197.596 25.7946 197.596 24.957C197.596 24.6205 197.782 24.1193 197.904 23.9976C197.811 23.9046 197.532 23.8759 197.317 23.8759C195.677 23.8759 194.689 25.1717 194.689 27.7992C194.689 28.1715 194.754 29.682 194.811 29.904H198.398V31.973H194.811V41.7382H197.811V43.8072H189.871V41.7382V41.7453Z" fill="white"/>
</svg>
