<svg width="225" height="208" viewBox="0 0 225 208" fill="none" xmlns="http://www.w3.org/2000/svg">
<g clip-path="url(#clip0_267_1624)">
<path d="M215.331 187.682C215.662 171.893 217.918 156.188 219.062 140.446C220.45 121.357 223.467 102.441 224.217 83.3051C224.264 82.188 224.489 79.7114 224.736 76.5399C224.775 73.166 224.798 69.7882 224.871 66.4218C225.061 57.055 224.604 49.4085 221.833 40.7531C220.473 39.396 218.418 39.3594 215.35 39.6968C206.769 40.655 196.792 39.9759 188.135 39.245C168.877 37.6161 149.704 35.5205 131.002 29.7982C121.336 26.837 111.94 23.7422 102.673 20.1322C98.3436 18.8625 94.0785 17.4323 89.8949 15.6512C84.1043 13.196 78.4962 10.3154 73.3678 6.43497C70.9879 4.63362 68.6495 2.41391 66.1115 0.712927C64.6353 0.0878154 63.0506 -0.134108 61.3531 0.357276C59.1177 1.01877 57.1105 3.01496 55.707 5.34195C48.7052 14.8807 43.9742 28.0626 39.4238 39.0107C32.5982 55.4327 26.7655 72.3513 20.8122 89.1648C14.754 106.266 10.2692 124.033 5.85185 141.719C4.42922 147.405 3.12722 153.196 2.50679 159.082C2.27944 161.189 2.24273 162.347 2.59991 163.167C7.64049 165.997 12.904 168.372 18.2655 170.497C20.6486 171.133 23.0014 171.742 25.1657 172.522C32.4975 175.151 39.8395 177.723 47.1781 180.314C53.1846 182.449 59.5649 182.918 65.6734 184.59C70.9326 186.031 88.7804 190.024 94.4396 191.38C96.7631 191.672 105.448 179.519 112.562 166.876C114.488 163.986 116.346 161.082 118.084 158.169C117.274 164.713 122.347 194.069 124.194 198.024C127.39 199.757 130.992 200.61 134.431 201.679C135.16 201.902 135.891 202.106 136.62 202.329C160.455 207.791 186.668 210 210.103 202.054C210.16 202.028 210.217 202.002 210.275 201.976C214.608 200.35 215.299 192.263 215.388 187.656L215.331 187.682ZM221.793 86.8207C221.584 94.5695 221.25 101.182 219.223 109.317C217.75 107.624 215.301 105.437 213.928 103.669C210.986 99.8742 209.46 95.505 207.665 90.9779C204.793 83.7382 203.08 76.0802 200.823 68.6296C207.784 67.8304 216.22 66.0422 222.779 63.6163C222.427 70.808 222.004 79.636 221.806 86.8431L221.793 86.8207ZM222.771 47.9639C223.123 49.5793 222.98 51.4134 222.979 53.0463C222.975 55.5535 222.908 58.0269 222.425 60.4839C222.295 61.1934 220.975 61.4394 220.907 61.4243C219.075 62.0796 215.031 63.5572 214.738 63.6273C209.972 64.7475 205.14 65.5612 200.265 66.1318C200.195 66.1353 200.121 66.1575 200.05 66.161C196.069 66.6224 192.081 66.9269 188.084 67.0932C188.222 64.3249 188.025 61.5779 188.146 58.8057C188.258 56.1868 188.301 53.6498 187.925 51.1152C188.1 51.1158 188.271 51.1351 188.446 51.1356C190.777 51.0013 193.122 50.9866 195.459 51.0092C203.027 50.7164 222.502 46.659 222.804 47.9715L222.771 47.9639ZM119.595 135.919C117.869 130.63 117.197 125.987 118.016 119.776C118.935 112.829 120.075 105.913 121.132 98.9776C122.999 86.6457 128.121 74.1937 129.307 61.7661C129.592 61.8306 129.87 61.9324 130.152 62.0155C132.31 62.6391 134.485 63.1694 136.65 63.6585C134.33 67.081 126.432 101.342 124.063 110.488C121.837 119.045 120.582 127.452 119.612 135.923L119.595 135.919ZM132.755 59.7261C132.755 59.7261 132.621 59.6958 132.553 59.6806C116.075 54.7914 99.9096 49.7202 84.4884 41.4342C83.6935 41.0019 82.9223 40.536 82.1308 40.0851C82.306 39.8913 82.4678 39.6751 82.6162 39.4365C83.7195 37.6055 84.4642 35.4407 85.4266 33.5196C86.2574 31.8409 87.0051 28.6075 88.4088 27.4276C88.5334 27.3197 88.6884 27.1408 88.83 26.9395C89.5478 27.3155 90.2857 27.6767 91.0035 28.0527C105.259 35.2587 120.533 39.3705 135.711 43.3437C136.61 43.5857 137.53 43.813 138.433 44.0364C138.621 44.1566 138.825 44.2805 139.013 44.4007C140.698 44.8397 142.335 45.4429 143.78 46.4304C145.695 47.7183 148.101 49.7589 147.811 52.5902C147.78 52.7582 147.746 52.945 147.716 53.113C147.84 54.3465 147.685 55.6724 147.181 56.9972C146.498 58.8259 145.299 59.8383 143.884 60.3157C142.575 61.2642 140.606 61.5193 138.524 61.3406C138.464 61.288 138.377 61.2878 138.269 61.3024C136.264 61.0828 134.241 60.4895 132.735 59.741L132.755 59.7261ZM82.0702 35.1526C81.6952 35.9622 81.3236 36.7532 80.9318 37.559C80.7934 37.8387 80.7021 38.0514 80.6177 38.2268C78.6658 37.1442 79.1937 35.6887 80.0307 34.167C80.9184 32.5594 81.6519 30.8393 82.4423 29.1904C83.1212 27.769 84.0522 26.3073 84.7649 24.7963C85.6068 25.2587 86.452 25.7024 87.314 26.1499L87.2972 26.1461C85.9167 27.3895 85.2284 28.5755 84.347 30.34C83.55 31.9291 82.8839 33.5673 82.087 35.1564L82.0702 35.1526ZM149.147 55.6137C149.917 52.7354 149.234 47.9541 146.962 46.041C158.238 48.5105 170.086 50.3318 181.917 50.9049C182.621 56.3327 182.341 61.7908 181.719 67.2105C180.372 67.2173 179.008 67.2203 177.665 67.2084C172.123 67.1229 166.815 66.3321 161.332 65.5406C158.099 65.0629 146.215 62.8642 143.684 62.3701C146.515 61.2211 148.292 58.7645 149.133 55.5912L149.147 55.6137ZM183.788 50.997C184.533 51.0294 185.265 51.0392 186.014 51.0529C186.464 53.6625 186.407 56.2741 186.289 58.9304C186.171 61.6839 186.388 64.416 186.223 67.1394C185.343 67.1738 184.466 67.1896 183.59 67.2054C184.205 61.8231 184.465 56.3799 183.791 50.9784L183.788 50.997ZM63.7739 3.17883C66.2646 3.70266 67.3388 5.18959 69.501 6.74735C72.3873 8.83807 75.348 10.7123 78.3861 12.5457C78.5269 12.6359 78.6544 12.7035 78.7952 12.7937C84.3964 15.7116 90.0958 18.3795 95.8221 20.9952C109.361 27.1452 124.031 31.6062 138.384 34.7323C152.399 37.8011 166.274 40.2941 180.546 41.1855C187.162 41.6107 193.756 42.4395 200.375 42.7489C202.699 42.8462 206.344 42.5032 209.958 42.6197C211.003 42.5447 212.051 42.451 213.086 42.3348C215.633 42.0741 218.2 41.7014 220.564 43.0133C221.342 43.4418 222.957 46.3728 213.978 46.7356C189.167 51.6873 161.189 47.5637 137.46 41.1336C122.508 37.0752 107.593 32.8114 93.5897 25.5652C93.3985 25.4636 93.2241 25.3659 93.0463 25.2869C88.2782 23.5487 83.6218 21.4858 79.3131 18.7626C76.8554 17.1964 74.2233 15.5325 71.6923 13.697C68.1151 11.2752 64.8244 8.43211 62.593 5.14785C61.9741 4.23036 62.8439 3.00764 63.767 3.21618L63.7739 3.17883ZM54.9507 10.537C55.9737 8.57119 57.0437 6.63544 58.1469 4.80443C58.2075 4.75979 58.2547 4.69269 58.3153 4.64805C58.5272 4.54038 58.7661 4.3805 58.958 4.19057C58.0271 5.65223 69.7743 15.0135 70.3575 15.4563C74.4866 18.7804 78.9295 21.5339 83.4973 24.0822C81.5743 27.2445 79.5474 30.3055 77.8523 33.6554C77.3863 34.5805 76.7118 35.5946 76.239 36.5571C72.2253 34.0367 68.2859 31.397 64.2725 28.7794C60.8996 26.5788 58.0854 23.9016 55.4609 20.6647C53.0204 17.6637 53.6013 14.0038 54.9374 10.5145L54.9507 10.537ZM41.9513 40.8648C44.7142 33.8679 47.6707 26.0981 51.0025 18.6659C51.1548 19.4586 51.4281 20.2591 51.8356 21.0899C54.7922 27.0071 60.8718 30.6552 66.23 34.0432C63.4901 39.9566 58.6596 46.4087 55.0661 51.2543C49.5242 58.7316 41.2722 63.5359 32.7971 65.1596C35.768 57.0237 38.7892 48.8992 41.9715 40.8499L41.9513 40.8648ZM93.437 188.257C88.7164 187.599 81.7344 184.777 77.1058 183.615C64.4788 180.412 51.9208 177.789 39.5791 173.407C28.5997 169.507 16.3341 166.814 5.85538 161.608C1.63903 159.528 11.8849 130.211 12.9601 126.332C17.2435 111.008 21.7883 95.8788 27.0984 80.9613C28.7534 76.2998 30.4217 71.6608 32.1069 67.0256C37.5956 69.3154 47.0646 61.5783 51.0942 58.1726C55.0229 54.8413 58.1677 50.7302 61.0077 46.2781C63.1159 42.9633 66.1225 39.0348 67.6348 34.9632C68.2283 35.3501 68.8217 35.7369 69.3816 36.1161C87.4148 48.5694 107.619 55.4474 127.978 61.3881C123.913 75.129 120.325 89.1329 118.141 103.396C116.161 116.344 112.324 129.222 118.6 141.274C118.68 141.409 118.814 141.439 118.972 141.436C118.541 145.713 118.136 150.035 117.704 154.409C113.177 161.785 98.8316 186.851 93.4336 188.276L93.437 188.257ZM208.864 199.558C208.682 199.595 208.292 199.818 207.908 200.1C185.176 206.591 157.139 205.856 134.354 198.084C131.946 197.968 129.26 197.652 128.146 195.807C126.367 192.819 125.582 186.498 124.935 183.241C123.116 174.159 121.504 165.28 119.819 156.228C119.819 156.228 119.826 156.191 119.829 156.172C121.54 149.482 121.028 141.181 121.726 134.204C122.565 125.684 124.357 117.398 126.572 109.189C129.046 100.046 136.293 71.5489 138.755 64.0951C139.715 64.2926 140.685 64.5312 141.652 64.6913C145.618 66.326 150.464 66.6819 154.093 67.2879C162.238 68.6225 170.515 69.326 178.737 69.4725C185.058 69.5979 191.513 69.4622 197.944 68.8929C199.26 76.3255 201.447 83.7796 204.072 90.6522C205.723 95.0107 207.729 99.5272 210.268 103.328C212.396 106.511 215.968 108.485 218.149 111.466C217.506 117.095 216.809 122.731 216.216 128.371C214.814 141.605 213.719 155.064 212.935 168.36C212.597 174.038 211.661 179.737 211.549 185.428C211.512 187.927 211.154 189.888 210.824 192.457C210.457 195.427 211.34 199.106 208.857 199.595L208.864 199.558Z" fill="#F6B510"/>
</g>
<defs>
<clipPath id="clip0_267_1624">
<rect width="225" height="208" fill="white"/>
</clipPath>
</defs>
</svg>
