<svg width="180" height="250" viewBox="0 0 180 250" fill="none" xmlns="http://www.w3.org/2000/svg">
<g clip-path="url(#clip0_267_1620)">
<path d="M90.9187 144.96C90.9187 144.96 95.0284 158.199 123.401 154.817C151.774 151.435 178.072 132.451 178.072 132.451L147.407 48.7633C147.407 48.7633 126.449 68.0048 95.527 66.8962" stroke="#F6B510" stroke-width="2" stroke-miterlimit="10"/>
<path d="M96.4028 129.547C96.4028 129.547 95.9745 131.165 92.8012 135.175C90.0122 138.705 90.4249 142.858 90.7784 144.457C90.8287 144.669 90.8737 144.846 90.9103 144.955C91.2286 145.906 84.6053 131.62 83.7456 112.181" stroke="#F6B510" stroke-width="2" stroke-miterlimit="10"/>
<path d="M6.16738 6.00141C6.16738 6.00141 42.6931 -2.83676 58.3944 3.46059C77.39 11.0735 87.0683 26.502 92.7072 47.2098C98.344 67.9108 96.399 129.556 96.399 129.556C96.399 129.556 96.7919 123.995 89.4763 116.586C82.1607 109.176 56.9064 95.4146 26.9157 111.791" stroke="#F6B510" stroke-width="2" stroke-miterlimit="10"/>
<path d="M76.375 52.6024L78.0728 47.7084L80.3009 52.7607L84.7398 53.7426L81.7606 57.4768L82.8043 62.9728L78.7396 60.2312L74.944 62.652L75.4072 57.2175L72.0224 53.2129L76.375 52.6024Z" fill="#F6B510"/>
<path d="M62.772 78.4732C51.8253 78.4177 42.1638 67.9601 41.191 55.1277C40.2183 42.2953 48.3011 31.9373 59.2477 31.9928C64.9374 32.0206 70.2808 34.8714 74.2371 39.3951C69.3541 30.8928 61.4025 25.2113 52.8244 25.1644C39.5774 25.0955 29.857 38.4841 31.1181 55.0766C32.3792 71.669 44.1363 85.1772 57.3833 85.2461C65.9615 85.293 73.0542 79.6919 76.6497 71.231C73.3779 75.7173 68.4639 78.5078 62.772 78.4732Z" fill="#F6B510"/>
<path d="M48.7776 249.704L0.698461 6.46649C3.87578 1.55184 5.9374 4.83465 5.9374 4.83465L54.0189 248.079C54.0189 248.079 49.668 247.902 48.7799 249.711L48.7776 249.704Z" fill="#F6B510"/>
</g>
<defs>
<clipPath id="clip0_267_1620">
<rect width="180" height="250" fill="white"/>
</clipPath>
</defs>
</svg>
