<?xml version="1.0" encoding="utf-8"?>
<!-- Generator: Adobe Illustrator 28.0.0, SVG Export Plug-In . SVG Version: 6.00 Build 0)  -->
<svg version="1.1" id="Layer_1" xmlns="http://www.w3.org/2000/svg" xmlns:xlink="http://www.w3.org/1999/xlink" x="0px" y="0px"
	 viewBox="0 0 107 128" style="enable-background:new 0 0 107 128;" xml:space="preserve">
<style type="text/css">
	.st0{fill:#F6B510;}
	.st1{fill:#5A5A5A;}
	.st2{fill:#FFFFFF;}
</style>
<path class="st0" d="M99,20.8H8c-4.4,0-8,3.6-8,8v70.5c0,4.4,3.6,8,8,8H99c4.4,0,8-3.6,8-8V28.7C107,24.3,103.4,20.8,99,20.8z"/>
<path class="st1" d="M80.3,107.2H8c-4.4,0-8-3.6-8-8V28.7c0-4.4,3.6-8,8-8h48c1.3,0,48.3,46.7,0,39.8c0,0-21.6,1.8-26.8,11.1
	c-10.2,18.1,9.3,27.9,9.3,29.9l30-12C68.4,94,84.7,107.2,80.3,107.2L80.3,107.2z"/>
<path class="st2" d="M50.4,32.6c-5.7,0-9.4,1.1-13,2.8c0.9,0.9,2,3.5,2,5.7c0,5-3.7,8.3-9.4,8.3c-6.5,0-9.4-4.4-9.4-9.4
	c0-12.2,15.2-19.3,31.5-19.3c24.3,0,33.5,11.9,33.5,33.5c0,13.9-0.6,15.9-0.6,32c0,5.2,0.9,7.8,4.6,7.8c1.1,0,2.2-0.2,3.1-0.6
	l1.7-0.6l2.6,9.8c-3.9,3.7-9.4,4.4-13.3,4.4c-3.9,0-13.3-1.1-14.8-12.2c-4.3,6.5-12.8,12.2-25.9,12.2c-17.8,0-28.3-9.6-28.3-25.2
	c0-17,13.1-25.9,33-25.9c7.2,0,15.9,1.3,20.9,4.1c0.2-2.4,0.2-4.6,0.2-6.7C68.8,41.5,64.7,32.6,50.4,32.6L50.4,32.6z M48.6,94.1
	c10.2,0,16.7-5.9,19.8-10.9V71.7c-5-2.8-10.7-4.3-17.2-4.3c-11.7,0-18,4.4-18,13.3C33.2,88,38.2,94.1,48.6,94.1L48.6,94.1z"/>
</svg>
